# xmcd
#
# Track frame offsets:
#	150
#	17705
#	35099
#	48999
#	65375
#	81253
#	95730
#	108943
#	126045
#	137103
#	149247
#	163595
#	177642
#	192550
#	206497
#	221166
#
# Disc length: 3105 seconds
# Revision: 0
# Processed by: cddbd v1.5.2PL0 Copyright (c) Steve Scherf et al.
# Submitted via: dBpowerAMP V12.0
#
DISCID=fc0c1f10
DTITLE=Various Artist - Close Kin - A Reunion of Bluegrass and Old-Time Music
DYEAR=2011
DGENRE=Country
TTITLE0=Johnny Williams - Chilly Winds
TTITLE1=Jeanette Williams - Little Bird of Heaven
TTITLE2=Various Performers - Tennessee Grey Eagle
TTITLE3=Tiffany Hurt - Always a Day Too Late
TTITLE4=Adam Steffey - Rattlin' Bones
TTITLE5=Various Performers - Old Horse and Buggy
TTITLE6=Samantha Snyder - With Tears in My Eyes
TTITLE7=Eddie Bond - Sugar Hill
TTITLE8=Trevor McKenzie - Wise County Jail
TTITLE9=Jeanette Williams - Bound for to Leave
TTITLE10=Various Performers - Soldier's Joy
TTITLE11=Mickey Galyean - Seven Cent Cotton, Forty Cent Meat
TTITLE12=Jeanette Williams - Come All You Coal Miners
TTITLE13="Fat Albert" Blackburn - Walk Along John to Kansas
TTITLE14=Johnny Willams and Rebecca Jones - Say Darlin' Say
TTITLE15=Various Performers - Holly Ding
EXTD=
EXTT0=
EXTT1=
EXTT2=
EXTT3=
EXTT4=
EXTT5=
EXTT6=
EXTT7=
EXTT8=
EXTT9=
EXTT10=
EXTT11=
EXTT12=
EXTT13=
EXTT14=
EXTT15=
PLAYORDER=
